<?xml version="1.0" encoding="iso-8859-1"?>
<!-- Generator: Adobe Illustrator 21.1.0, SVG Export Plug-In . SVG Version: 6.00 Build 0)  -->
<svg xmlns="http://www.w3.org/2000/svg" xmlns:xlink="http://www.w3.org/1999/xlink" version="1.1" id="Layer_1" x="0px" y="0px" viewBox="0 0 64 64" style="enable-background:new 0 0 64 64;" xml:space="preserve">
<g>
	<circle style="fill:#F9E3AE;" cx="31" cy="31" r="22"/>
	<path style="fill:#FFEFCA;" d="M12.713,52.287c2.627,2.498,5.736,4.49,9.177,5.823L56,24v-6.426   c-1.058-1.757-2.308-3.384-3.713-4.861L12.713,52.287z"/>
	<path style="fill:#FFEFCA;" d="M10.763,50.237L50,11h-6L8.221,46.779C8.98,47.998,9.831,49.153,10.763,50.237z"/>
	<path style="fill:#FFEFCA;" d="M7.795,43.205L41,10l-3-2L6.364,39.636C6.762,40.865,7.238,42.058,7.795,43.205z"/>
	<path style="fill:#F6D397;" d="M31,3C15.536,3,3,15.536,3,31s12.536,28,28,28s28-12.536,28-28S46.464,3,31,3z M31,53   C18.85,53,9,43.15,9,31S18.85,9,31,9c5.883,0,11.226,2.309,15.174,6.07c0.231,0.22,0.456,0.444,0.677,0.674   c0.258,0.268,0.51,0.543,0.755,0.825C50.966,20.432,53,25.478,53,31C53,43.15,43.15,53,31,53z"/>
	<polygon style="fill:#FFF8F8;" points="18.498,28.996 19.736,31.26 22,32.498 19.736,33.736 18.498,36 17.26,33.736 14.996,32.498    17.26,31.26  "/>
	<polygon style="fill:#FFF8F8;" points="43.419,20 44.274,21.564 45.838,22.419 44.274,23.274 43.419,24.838 42.564,23.274    41,22.419 42.564,21.564  "/>
	<polygon style="fill:#FFF8F8;" points="43.352,35.704 43.935,36.769 45,37.352 43.935,37.935 43.352,39 42.769,37.935    41.704,37.352 42.769,36.769  "/>
	<g>
		<path style="fill:#8D6C9F;" d="M38.351,11.322c0.71,0.266,1.416,0.574,2.1,0.919c0.145,0.073,0.298,0.107,0.449,0.107    c0.365,0,0.718-0.201,0.894-0.55c0.249-0.492,0.051-1.094-0.442-1.343c-0.748-0.378-1.522-0.717-2.301-1.007    c-0.517-0.193-1.094,0.069-1.286,0.587C37.57,10.554,37.833,11.13,38.351,11.322z"/>
		<path style="fill:#8D6C9F;" d="M31,2C15.01,2,2,15.01,2,31s13.01,29,29,29s29-13.01,29-29S46.99,2,31,2z M31,58    C16.112,58,4,45.888,4,31S16.112,4,31,4s27,12.112,27,27S45.888,58,31,58z"/>
		<path style="fill:#8D6C9F;" d="M31,49c-0.553,0-1,0.447-1,1v2c0,0.553,0.447,1,1,1s1-0.447,1-1v-2C32,49.447,31.553,49,31,49z"/>
		<path style="fill:#8D6C9F;" d="M37.013,49.077c-0.143-0.534-0.691-0.852-1.225-0.707c-0.533,0.143-0.85,0.691-0.707,1.225    l0.518,1.932c0.119,0.447,0.523,0.741,0.965,0.741c0.086,0,0.173-0.011,0.26-0.034c0.533-0.143,0.85-0.691,0.707-1.225    L37.013,49.077z"/>
		<path style="fill:#8D6C9F;" d="M21.75,46.521c-0.479-0.276-1.09-0.113-1.366,0.366l-1,1.731c-0.276,0.479-0.112,1.09,0.366,1.366    c0.157,0.091,0.329,0.134,0.499,0.134c0.346,0,0.682-0.179,0.867-0.5l1-1.731C22.393,47.409,22.229,46.798,21.75,46.521z"/>
		<path style="fill:#8D6C9F;" d="M41.616,46.888c-0.277-0.479-0.891-0.643-1.366-0.366c-0.479,0.276-0.643,0.888-0.366,1.366    l1,1.731c0.186,0.321,0.521,0.5,0.867,0.5c0.17,0,0.342-0.043,0.499-0.134c0.479-0.276,0.643-0.888,0.366-1.366L41.616,46.888z"/>
		<path style="fill:#8D6C9F;" d="M26.212,48.37c-0.533-0.144-1.082,0.173-1.225,0.707l-0.518,1.932    c-0.143,0.533,0.174,1.082,0.707,1.225c0.087,0.023,0.174,0.034,0.26,0.034c0.441,0,0.846-0.294,0.965-0.741l0.518-1.932    C27.062,49.062,26.745,48.513,26.212,48.37z"/>
		<path style="fill:#8D6C9F;" d="M16.15,16.15c4.749-4.748,11.551-6.95,18.188-5.885c0.545,0.09,1.058-0.283,1.146-0.829    c0.088-0.545-0.284-1.059-0.829-1.146c-7.271-1.165-14.717,1.245-19.918,6.445c-8.967,8.968-8.967,23.56,0,32.527    c0.195,0.195,0.451,0.293,0.707,0.293c0.256,0,0.512-0.098,0.707-0.293c0.391-0.391,0.391-1.023,0-1.414    C7.963,37.661,7.963,24.339,16.15,16.15z"/>
		<path style="fill:#8D6C9F;" d="M47.264,14.736c-0.658-0.658-1.362-1.282-2.095-1.855c-0.434-0.342-1.062-0.264-1.403,0.171    s-0.265,1.062,0.171,1.403c0.668,0.523,1.312,1.094,1.913,1.695c8.188,8.188,8.188,21.511,0,29.699    c-0.391,0.391-0.391,1.023,0,1.414c0.195,0.195,0.451,0.293,0.707,0.293c0.256,0,0.512-0.098,0.707-0.293    C56.23,38.296,56.23,23.704,47.264,14.736z"/>
		<path style="fill:#8D6C9F;" d="M40,34c0-2.413-1.435-4.492-3.493-5.444C37.427,27.649,38,26.391,38,25v-2    c0-2.421-1.731-4.444-4.02-4.901C33.984,18.065,34,18.035,34,18v-2c0-0.553-0.447-1-1-1s-1,0.447-1,1v2h-2v-2c0-0.553-0.447-1-1-1    s-1,0.447-1,1v2h-3c-0.553,0-1,0.447-1,1v10v12c0,0.553,0.447,1,1,1h3v2c0,0.553,0.447,1,1,1s1-0.447,1-1v-2h2v2    c0,0.553,0.447,1,1,1s1-0.447,1-1v-2c3.309,0,6-2.691,6-6V34z M26,20h7c1.654,0,3,1.346,3,3v2c0,1.654-1.346,3-3,3h-7V20z M38,36    c0,2.206-1.794,4-4,4h-8V30h7h1c2.206,0,4,1.794,4,4V36z"/>
	</g>
</g>
</svg>
