<?xml version="1.0"?>
<svg xmlns="http://www.w3.org/2000/svg" id="Layer_1" data-name="Layer 1" viewBox="0 0 64 64"><title>Icons8 RSL Colored Part 7</title><rect x="3.04" y="45" width="58" height="16" style="fill:#c2cde7;"/><path d="M7,53H57a4,4,0,0,1,4,4v4a0,0,0,0,1,0,0H3a0,0,0,0,1,0,0V57A4,4,0,0,1,7,53Z" style="fill:#b5c4e0;"/><polygon points="61.04 45 3.04 45 9.04 11 55.04 11 61.04 45" style="fill:#ced8ed;"/><polygon points="56.1 17 55.04 11 9.04 11 7.98 17 56.1 17" style="fill:#dae2ef;"/><circle cx="11.04" cy="53" r="2" style="fill:#ed7899;"/><path d="M61.92,44.48l-5.65-32a3,3,0,0,0-3-2.48H10.68a3,3,0,0,0-3,2.48l-5.65,32a5,5,0,0,0-.08.87V59a3,3,0,0,0,3,3H59a3,3,0,0,0,3-3V45.35A5,5,0,0,0,61.92,44.48ZM9.69,12.83a1,1,0,0,1,1-.83H53.32a1,1,0,0,1,1,.83L59.81,44H4.19ZM59,60H5a1,1,0,0,1-1-1V46H60V59A1,1,0,0,1,59,60Z" style="fill:#8d6c9f;"/><path d="M35,51a1,1,0,0,0-1,1v2a1,1,0,0,0,2,0V52A1,1,0,0,0,35,51Z" style="fill:#8d6c9f;"/><path d="M40,51a1,1,0,0,0-1,1v2a1,1,0,0,0,2,0V52A1,1,0,0,0,40,51Z" style="fill:#8d6c9f;"/><path d="M45,51a1,1,0,0,0-1,1v2a1,1,0,0,0,2,0V52A1,1,0,0,0,45,51Z" style="fill:#8d6c9f;"/><path d="M50,51a1,1,0,0,0-1,1v2a1,1,0,0,0,2,0V52A1,1,0,0,0,50,51Z" style="fill:#8d6c9f;"/><path d="M55,51a1,1,0,0,0-1,1v2a1,1,0,0,0,2,0V52A1,1,0,0,0,55,51Z" style="fill:#8d6c9f;"/><path d="M11,50a3,3,0,1,0,3,3A3,3,0,0,0,11,50Zm0,4a1,1,0,1,1,1-1A1,1,0,0,1,11,54Z" style="fill:#8d6c9f;"/><path d="M21,52H17a1,1,0,0,0,0,2h4a1,1,0,0,0,0-2Z" style="fill:#8d6c9f;"/><polygon points="35 1 35 26 39 22 43 26 32 37 21 26 25 22 29 26 29 1 35 1" style="fill:#faefde;"/><path d="M32.71,37.71l11-11a1,1,0,0,0,0-1.41l-4-4a1,1,0,0,0-1.41,0L36,23.59V1a1,1,0,0,0-1-1H29a1,1,0,0,0-1,1V23.59l-2.29-2.29a1,1,0,0,0-1.41,0l-4,4a1,1,0,0,0,0,1.41l11,11A1,1,0,0,0,32.71,37.71ZM22.41,26,25,23.41l3.29,3.29A1,1,0,0,0,30,26V2h4V26a1,1,0,0,0,1.71.71L39,23.41,41.59,26,32,35.59Z" style="fill:#8d6c9f;"/></svg>
