<?xml version="1.0" encoding="iso-8859-1"?>
<!-- Generator: Adobe Illustrator 22.1.0, SVG Export Plug-In . SVG Version: 6.00 Build 0)  -->
<svg xmlns="http://www.w3.org/2000/svg" xmlns:xlink="http://www.w3.org/1999/xlink" version="1.1" x="0px" y="0px" viewBox="0 0 64 64" style="enable-background:new 0 0 64 64;" xml:space="preserve">
<g id="Layer_1">
	<polygon style="fill:#FAEFDE;" points="0,25 0,50 16,52 31,44 31,39 18,37 18.201,23.048 11,21 7,22  "/>
	<path style="fill:#EFD8BE;" d="M18,41h-7V27.03C11,23.7,13.7,21,17.03,21H18V41z"/>
	<g>
		<path style="fill:#97E0BB;" d="M61,48H25l6-3l-2-4h-9l-5-1V18c0-1.105,0.895-2,2-2h44c1.105,0,2,0.895,2,2v28    C63,47.105,62.105,48,61,48z"/>
	</g>
	<path style="fill:#B0EDCC;" d="M15,16v1c0,2.209,1.791,4,4,4h40c2.209,0,4-1.791,4-4v-1H15z"/>
	<path style="fill:#FFF7F0;" d="M30.965,44.88l0.347,0.503l0.131-0.064c0.601-0.292,0.752-1.08,0.301-1.574l-2.953-3.234   l-12.507-0.099l-2.558-1.55c-0.769-0.276-1.542-0.634-2.297-1.119L11,37c-2,1-1.054,3.986-0.294,4.972   c1.187,1.539,3.599,1.469,5.54,1.381l10.352-0.469C28.29,42.807,29.915,43.55,30.965,44.88L30.965,44.88z"/>
	<path style="fill:#8D6C9F;" d="M61,15H17c-1.65,0-3,1.35-3,3v2.22l-0.27-0.08c-3.02-0.88-6.28-0.42-8.94,1.25l-4.31,2.72   c-0.47,0.29-0.61,0.91-0.31,1.38c0.19,0.3,0.51,0.46,0.84,0.46c0.18,0,0.37-0.05,0.53-0.15l4.32-2.71   c2.17-1.37,4.84-1.75,7.31-1.03L14,22.3v16.39c-0.03-0.01-0.05-0.02-0.08-0.04l-2.99-1.74c-0.48-0.28-1.09-0.12-1.37,0.36   c-0.28,0.48-0.11,1.09,0.36,1.36l3,1.75c0.35,0.21,0.71,0.39,1.08,0.55c0.65,0.29,1.31,0.51,2,0.66c1.04,0.25,2.12,0.33,3.21,0.25   l6.26-0.44c1.66-0.11,3.27,0.6,4.29,1.91l0.08,0.1c0.19,0.24,0.25,0.55,0.18,0.85c-0.07,0.3-0.27,0.54-0.54,0.67L25.07,47   l-3.94,1.85c-0.11,0.05-0.23,0.1-0.34,0.15c-3.35,1.5-7.03,1.99-10.68,1.42l-8.95-1.41c-0.55-0.08-1.06,0.29-1.15,0.83   c-0.08,0.55,0.29,1.06,0.83,1.15l8.96,1.4c1.09,0.18,2.19,0.26,3.28,0.26c3.06,0,6.09-0.67,8.9-1.99L25.52,49H61c1.65,0,3-1.35,3-3   V18C64,16.35,62.65,15,61,15z M62,46c0,0.55-0.45,1-1,1H29.78l0.55-0.26c0.83-0.39,1.43-1.12,1.64-2.02   c0.21-0.89,0.01-1.82-0.55-2.54l-0.08-0.1c-1.44-1.83-3.68-2.83-6-2.67l-6.27,0.44c-1.04,0.07-2.08-0.04-3.07-0.33V18   c0-0.55,0.45-1,1-1h44c0.55,0,1,0.45,1,1V46z"/>
	<path style="fill:#8D6C9F;" d="M24,23c0.553,0,1-0.448,1-1v-2c0-0.552-0.447-1-1-1s-1,0.448-1,1v2C23,22.552,23.447,23,24,23z"/>
	<path style="fill:#8D6C9F;" d="M19,23c0.553,0,1-0.448,1-1v-2c0-0.552-0.447-1-1-1s-1,0.448-1,1v2C18,22.552,18.447,23,19,23z"/>
	<path style="fill:#8D6C9F;" d="M29,23c0.553,0,1-0.448,1-1v-2c0-0.552-0.447-1-1-1s-1,0.448-1,1v2C28,22.552,28.447,23,29,23z"/>
	<path style="fill:#8D6C9F;" d="M34,23c0.553,0,1-0.448,1-1v-2c0-0.552-0.447-1-1-1s-1,0.448-1,1v2C33,22.552,33.447,23,34,23z"/>
	<path style="fill:#8D6C9F;" d="M44,23c0.553,0,1-0.448,1-1v-2c0-0.552-0.447-1-1-1s-1,0.448-1,1v2C43,22.552,43.447,23,44,23z"/>
	<path style="fill:#8D6C9F;" d="M39,23c0.553,0,1-0.448,1-1v-2c0-0.552-0.447-1-1-1s-1,0.448-1,1v2C38,22.552,38.447,23,39,23z"/>
	<path style="fill:#8D6C9F;" d="M49,23c0.553,0,1-0.448,1-1v-2c0-0.552-0.447-1-1-1s-1,0.448-1,1v2C48,22.552,48.447,23,49,23z"/>
	<path style="fill:#8D6C9F;" d="M54,23c0.553,0,1-0.448,1-1v-2c0-0.552-0.447-1-1-1s-1,0.448-1,1v2C53,22.552,53.447,23,54,23z"/>
	<path style="fill:#8D6C9F;" d="M59,23c0.553,0,1-0.448,1-1v-2c0-0.552-0.447-1-1-1s-1,0.448-1,1v2C58,22.552,58.447,23,59,23z"/>
	<path style="fill:#8D6C9F;" d="M19,30h8c0.553,0,1-0.448,1-1s-0.447-1-1-1h-8c-0.553,0-1,0.448-1,1S18.447,30,19,30z"/>
	<path style="fill:#8D6C9F;" d="M29,33H19c-0.553,0-1,0.448-1,1s0.447,1,1,1h10c0.553,0,1-0.448,1-1S29.553,33,29,33z"/>
	<path style="fill:#8D6C9F;" d="M34,28h-3c-0.553,0-1,0.448-1,1s0.447,1,1,1h3c0.553,0,1-0.448,1-1S34.553,28,34,28z"/>
	<path style="fill:#F283A5;" d="M43.657,36.641c-2.714,1.086-4.775,3.456-5.434,6.358l17.554,0c-0.647-2.852-2.649-5.19-5.294-6.301   L43.657,36.641z"/>
	<path style="fill:#F9E3AE;" d="M42,32c0,2.761,2.239,6,5,6s5-3.239,5-6v-1c0-2.761-2.239-5-5-5s-5,2.239-5,5V32z"/>
	<path style="fill:#8D6C9F;" d="M56.431,41.667c-0.839-2.373-2.553-4.335-4.762-5.504C52.505,34.91,53,33.406,53,32v-1   c0-3.309-2.691-6-6-6s-6,2.691-6,6v1c0,1.404,0.494,2.905,1.328,4.157c-2.211,1.168-3.917,3.129-4.758,5.509   c-0.185,0.521,0.088,1.092,0.609,1.276C38.289,42.982,38.401,43,38.512,43c0.412,0,0.798-0.257,0.942-0.667   c0.729-2.062,2.274-3.722,4.26-4.618C44.651,38.501,45.775,39,47,39c1.227,0,2.351-0.5,3.288-1.286   c1.983,0.896,3.531,2.565,4.258,4.62C54.69,42.744,55.076,43,55.488,43c0.11,0,0.224-0.019,0.333-0.058   C56.343,42.759,56.615,42.188,56.431,41.667z M47,37c-2.154,0-4-2.75-4-5v-1c0-2.206,1.794-4,4-4s4,1.794,4,4v1   C51,34.25,49.154,37,47,37z"/>
</g>
<g id="Layer_2">
</g>
</svg>
