<?xml version="1.0" encoding="iso-8859-1"?>
<!-- Generator: Adobe Illustrator 20.1.0, SVG Export Plug-In . SVG Version: 6.00 Build 0)  -->
<svg version="1.1" id="Layer_1" xmlns="http://www.w3.org/2000/svg" xmlns:xlink="http://www.w3.org/1999/xlink" x="0px" y="0px"
	 viewBox="0 0 40 40" style="enable-background:new 0 0 40 40;" xml:space="preserve">
<g>
	<rect x="27.5" y="1.5" style="fill:#CBC4E3;" width="3" height="37"/>
	<g>
		<path style="fill:#8B75A1;" d="M30,2v36h-2V2H30 M31,1h-4v38h4V1L31,1z"/>
	</g>
</g>
<g>
	<rect x="28" y="1" style="fill:#CBC4E3;" width="2" height="2"/>
</g>
<g>
	<rect x="9.5" y="1.5" style="fill:#CBC4E3;" width="3" height="37"/>
	<g>
		<path style="fill:#8B75A1;" d="M12,2v36h-2V2H12 M13,1H9v38h4V1L13,1z"/>
	</g>
</g>
<g>
	<rect x="10" y="1" style="fill:#CBC4E3;" width="2" height="2"/>
</g>
<g>
	<rect x="1.5" y="9.5" style="fill:#CBC4E3;" width="37" height="3"/>
	<g>
		<path style="fill:#8B75A1;" d="M38,10v2H2v-2H38 M39,9H1v4h38V9L39,9z"/>
	</g>
</g>
<g>
	<rect x="1" y="10" style="fill:#CBC4E3;" width="2" height="2"/>
</g>
<g>
	<rect x="37" y="10" style="fill:#CBC4E3;" width="2" height="2"/>
</g>
<g>
	<path style="fill:#CBC4E3;" d="M8.983,14.5c-0.396,0-0.768-0.154-1.048-0.435S7.5,13.413,7.5,13.017
		c0-0.396,0.154-0.769,0.435-1.049l4.034-4.034c0.28-0.28,0.652-0.435,1.049-0.435c0.396,0,0.768,0.154,1.048,0.435
		S14.5,8.587,14.5,8.983c0,0.396-0.154,0.769-0.435,1.049l-4.034,4.034C9.751,14.346,9.379,14.5,8.983,14.5z"/>
	<g>
		<path style="fill:#8B75A1;" d="M13.017,8c0.263,0,0.509,0.102,0.695,0.288C13.898,8.474,14,8.721,14,8.983
			c0,0.263-0.102,0.509-0.288,0.695l-4.034,4.034C9.493,13.898,9.246,14,8.983,14s-0.509-0.102-0.695-0.288
			C8.102,13.526,8,13.279,8,13.017c0-0.263,0.102-0.509,0.288-0.695l4.034-4.034C12.507,8.102,12.754,8,13.017,8 M13.017,7
			c-0.508,0-1.015,0.194-1.402,0.581l-4.034,4.034c-0.774,0.774-0.774,2.03,0,2.805v0C7.968,14.806,8.476,15,8.983,15
			s1.015-0.194,1.402-0.581l4.034-4.034c0.774-0.774,0.774-2.03,0-2.805v0C14.032,7.194,13.524,7,13.017,7L13.017,7z"/>
	</g>
</g>
<g>
	<path style="fill:#CBC4E3;" d="M26.983,14.5c-0.396,0-0.768-0.154-1.048-0.435S25.5,13.413,25.5,13.017
		c0-0.396,0.154-0.769,0.435-1.049l4.034-4.034c0.28-0.28,0.652-0.435,1.049-0.435c0.396,0,0.768,0.154,1.048,0.435
		S32.5,8.587,32.5,8.983c0,0.396-0.154,0.769-0.435,1.049l-4.034,4.034C27.751,14.346,27.379,14.5,26.983,14.5z"/>
	<g>
		<path style="fill:#8B75A1;" d="M31.017,8c0.263,0,0.509,0.102,0.695,0.288C31.898,8.474,32,8.721,32,8.983
			c0,0.263-0.102,0.509-0.288,0.695l-4.034,4.034C27.493,13.898,27.246,14,26.983,14s-0.509-0.102-0.695-0.288
			C26.102,13.526,26,13.279,26,13.017c0-0.263,0.102-0.509,0.288-0.695l4.034-4.034C30.507,8.102,30.754,8,31.017,8 M31.017,7
			c-0.508,0-1.015,0.194-1.402,0.581l-4.034,4.034c-0.774,0.774-0.774,2.03,0,2.805v0C25.968,14.806,26.476,15,26.983,15
			s1.015-0.194,1.402-0.581l4.034-4.034c0.774-0.774,0.774-2.03,0-2.805v0C32.032,7.194,31.524,7,31.017,7L31.017,7z"/>
	</g>
</g>
<g>
	<g>
		<path style="fill:#F5CE85;" d="M26.5,34.5c-1.103,0-2-0.897-2-2c0-0.233,0.046-0.473,0.138-0.71l0.146-0.383l-0.347-0.219
			C23.851,30.817,23.5,30.186,23.5,29.5c0-0.288,0.067-0.577,0.201-0.857l0.18-0.376l-0.338-0.244C22.88,27.543,22.5,26.806,22.5,26
			c0-0.55,0.187-1.079,0.538-1.53l0.258-0.33l-0.279-0.312C22.684,23.457,22.5,22.985,22.5,22.5c0-1.103,0.897-2,2-2h6v-3H31
			c1.096,0,2.143,0.523,2.8,1.4l1.95,2.6h2.75v12h-2.707l-0.561,0.561c-0.279,0.279-0.666,0.439-1.061,0.439H26.5z"/>
	</g>
	<g>
		<path style="fill:#967A44;" d="M31,18c0.939,0,1.836,0.449,2.4,1.2l1.8,2.4l0.3,0.4H36h2v11h-2h-0.414l-0.293,0.293l-0.414,0.414
			C34.69,33.896,34.439,34,34.172,34H26.5c-0.827,0-1.5-0.673-1.5-1.5c0-0.172,0.035-0.351,0.105-0.533l0.293-0.765l-0.693-0.437
			C24.263,30.486,24,30.013,24,29.5c0-0.214,0.051-0.429,0.152-0.641l0.36-0.753l-0.677-0.489C23.305,27.234,23,26.644,23,26
			c0-0.553,0.235-0.97,0.433-1.222l0.516-0.66l-0.559-0.624C23.212,23.296,23,22.963,23,22.5c0-0.827,0.673-1.5,1.5-1.5H30h1v-1V18
			 M31,17h-1v3h-5.5c-1.381,0-2.5,1.119-2.5,2.5c0,0.641,0.248,1.22,0.645,1.662C22.247,24.671,22,25.304,22,26
			c0,1.002,0.496,1.883,1.25,2.428C23.094,28.754,23,29.115,23,29.5c0,0.891,0.469,1.667,1.171,2.11
			C24.065,31.887,24,32.185,24,32.5c0,1.381,1.119,2.5,2.5,2.5h7.672c0.53,0,1.039-0.211,1.414-0.586L36,34h3V21h-3l-1.8-2.4
			C33.445,17.593,32.259,17,31,17L31,17z"/>
	</g>
</g>
<g>
	<rect x="37" y="22" style="fill:#F5CE85;" width="2" height="11"/>
</g>
<g>
	<g>
		<path style="fill:#F5CE85;" d="M5.828,34.5c-0.395,0-0.781-0.16-1.061-0.439L4.207,33.5H1.5v-12h2.75l1.95-2.6
			c0.657-0.876,1.704-1.4,2.8-1.4h0.5v3h6c1.103,0,2,0.897,2,2c0,0.485-0.184,0.957-0.517,1.329l-0.279,0.312l0.258,0.33
			C17.313,24.921,17.5,25.45,17.5,26c0,0.806-0.38,1.543-1.043,2.022l-0.338,0.244l0.18,0.376c0.134,0.281,0.201,0.569,0.201,0.857
			c0,0.686-0.351,1.317-0.938,1.688l-0.347,0.219l0.146,0.383c0.092,0.238,0.138,0.477,0.138,0.71c0,1.103-0.897,2-2,2H5.828z"/>
	</g>
	<g>
		<path style="fill:#967A44;" d="M9,18v2v1h1h5.5c0.827,0,1.5,0.673,1.5,1.5c0,0.463-0.212,0.796-0.39,0.995l-0.559,0.624
			l0.516,0.66C16.765,25.03,17,25.447,17,26c0,0.644-0.305,1.234-0.836,1.617l-0.677,0.489l0.36,0.753
			C15.949,29.071,16,29.286,16,29.5c0,0.513-0.263,0.986-0.704,1.265l-0.693,0.437l0.293,0.765C14.965,32.149,15,32.328,15,32.5
			c0,0.827-0.673,1.5-1.5,1.5H5.828c-0.267,0-0.518-0.104-0.707-0.293l-0.414-0.414L4.414,33H4H2V22h2h0.5l0.3-0.4l1.8-2.4
			C7.164,18.449,8.061,18,9,18 M10,17H9c-1.259,0-2.445,0.593-3.2,1.6L4,21H1v13h3l0.414,0.414C4.789,34.789,5.298,35,5.828,35H13.5
			c1.381,0,2.5-1.119,2.5-2.5c0-0.315-0.065-0.613-0.171-0.89C16.531,31.167,17,30.391,17,29.5c0-0.385-0.094-0.746-0.25-1.072
			C17.504,27.883,18,27.002,18,26c0-0.696-0.247-1.329-0.645-1.838C17.752,23.72,18,23.141,18,22.5c0-1.381-1.119-2.5-2.5-2.5H10V17
			L10,17z"/>
	</g>
</g>
<g>
	<rect x="1" y="22" style="fill:#F5CE85;" width="2" height="11"/>
</g>
</svg>
