<?xml version="1.0"?>
<svg xmlns="http://www.w3.org/2000/svg" id="Layer_1" data-name="Layer 1" viewBox="0 0 64 64"><title>Icons8 RSL Colored Part 11</title><path d="M29,21.26V12.32a2,2,0,0,0-1.21-1.84L16.58,5.68a4,4,0,0,0-3.15,0L2.21,10.48A2,2,0,0,0,1,12.32V27.68a2,2,0,0,0,1.21,1.84l11.21,4.81a4,4,0,0,0,3.15,0l2.29-1" style="fill:#82d8bb;"/><polygon points="15 35 15 17 29 11 29 28 15 35" style="fill:#5dbc9d;"/><path d="M20.08,24.94l19.28-8.26a4,4,0,0,1,3.15,0l19.28,8.26A2,2,0,0,1,63,26.78V52.51a2,2,0,0,1-1.21,1.84L42.51,62.61a4,4,0,0,1-3.15,0L20.08,54.35a2,2,0,0,1-1.21-1.84V26.78A2,2,0,0,1,20.08,24.94Z" style="fill:#f9e3ae;"/><polygon points="40.93 63.29 40.93 34.91 63 25.46 63 53.57 40.93 63.29" style="fill:#f6d397;"/><polygon points="62.78 25.7 54.78 28.94 54.78 57.83 62.78 54.4 62.78 25.7" style="fill:#85cbf8;"/><polygon points="40.93 16.35 33.51 19.54 54.78 28.94 61.79 24.94 40.93 16.35" style="fill:#ace3ff;"/><polygon points="15 35 15 17 1 11 1 28.84 15 35" style="fill:#72caaf;"/><path d="M62.18,24,42.9,15.76a5,5,0,0,0-3.94,0L30,19.6V12.32a3,3,0,0,0-1.82-2.76L17,4.76a5,5,0,0,0-3.94,0L1.82,9.56A3,3,0,0,0,0,12.32V27.68a3,3,0,0,0,1.82,2.76L13,35.24a5,5,0,0,0,3.94,0l.9-.38V52.51a3,3,0,0,0,1.82,2.76L39,63.53a5,5,0,0,0,3.94,0l12.42-5.32h0l6.86-2.94a3,3,0,0,0,1.61-1.69A1,1,0,0,0,64,53V26.78A3,3,0,0,0,62.18,24ZM39.75,17.59a3,3,0,0,1,2.36,0l18.35,7.86-5.53,2.37L35.49,19.42Zm1.18,16.23L21.4,25.46,33,20.5,52.4,28.91ZM13.82,6.59a3,3,0,0,1,2.36,0L26.46,11,15,15.91,3.54,11ZM2.61,28.6A1,1,0,0,1,2,27.68V12.52l12,5.14v15.8l-.18-.06Zm13.58,4.81-.18.06V17.66l12-5.14v7.94L19.69,24h0a3,3,0,0,0-1.82,2.76v5.91Zm4.29,20a1,1,0,0,1-.61-.92V27l20.07,8.6V61.75l-.18-.06Zm21.64,8.26-.18.06V35.57l12-5.14v26.2Zm19.28-8.26-5.46,2.34V29.57L62,27V52.51A1,1,0,0,1,61.39,53.43Z" style="fill:#8d6c9f;"/><path d="M27,50a1,1,0,0,0-1,1v2a1,1,0,0,0,2,0V51A1,1,0,0,0,27,50Z" style="fill:#8d6c9f;"/><path d="M22,48a1,1,0,0,0-1,1v2a1,1,0,0,0,2,0V49A1,1,0,0,0,22,48Z" style="fill:#8d6c9f;"/><path d="M37,54a1,1,0,0,0-1,1v2a1,1,0,0,0,2,0V55A1,1,0,0,0,37,54Z" style="fill:#8d6c9f;"/><path d="M32,52a1,1,0,0,0-1,1v2a1,1,0,0,0,2,0V53A1,1,0,0,0,32,52Z" style="fill:#8d6c9f;"/></svg>
